<?xml version="1.0" encoding="UTF-8" standalone="no"?>
<!-- Created with Inkscape (http://www.inkscape.org/) -->

<svg
   width="100mm"
   height="110mm"
   viewBox="0 0 99.99999 110"
   version="1.1"
   id="svg5"
   inkscape:version="1.1.1 (3bf5ae0d25, 2021-09-20)"
   sodipodi:docname="ALTRYANEWLOGO.svg"
   xmlns:inkscape="http://www.inkscape.org/namespaces/inkscape"
   xmlns:sodipodi="http://sodipodi.sourceforge.net/DTD/sodipodi-0.dtd"
   xmlns="http://www.w3.org/2000/svg"
   xmlns:svg="http://www.w3.org/2000/svg">
  <sodipodi:namedview
     id="namedview7"
     pagecolor="#ffffff"
     bordercolor="#999999"
     borderopacity="1"
     inkscape:pageshadow="0"
     inkscape:pageopacity="0"
     inkscape:pagecheckerboard="0"
     inkscape:document-units="mm"
     showgrid="false"
     units="mm"
     inkscape:zoom="0.55181709"
     inkscape:cx="-104.2012"
     inkscape:cy="-20.840239"
     inkscape:window-width="1920"
     inkscape:window-height="1009"
     inkscape:window-x="1912"
     inkscape:window-y="-8"
     inkscape:window-maximized="1"
     inkscape:current-layer="g5518" />
  <defs
     id="defs2">
    <linearGradient
       x1="0"
       y1="0"
       x2="1"
       y2="0"
       gradientUnits="userSpaceOnUse"
       gradientTransform="matrix(-1078.0198,-622.39502,-622.39502,1078.0198,959.95081,906.46869)"
       spreadMethod="pad"
       id="linearGradient850">
      <stop
         style="stop-opacity:1;stop-color:#a5272a"
         offset="0"
         id="stop844" />
      <stop
         style="stop-opacity:1;stop-color:#090531"
         offset="0.28905911"
         id="stop846" />
      <stop
         style="stop-opacity:1;stop-color:#090531"
         offset="1"
         id="stop848" />
    </linearGradient>
    <clipPath
       clipPathUnits="userSpaceOnUse"
       id="clipPath860">
      <path
         d="M 0,1190.551 H 841.89 V 0 H 0 Z"
         id="path858" />
    </clipPath>
    <clipPath
       clipPathUnits="userSpaceOnUse"
       id="clipPath1448">
      <path
         d="M 26.73,667.301 V 33.274 h 529.354 c 37.589,64.769 59.112,140.026 59.112,220.306 v 0 c 0,242.77 -196.805,439.585 -439.584,439.585 v 0 c -52.256,0 -102.389,-9.125 -148.882,-25.864"
         id="path1446" />
    </clipPath>
    <clipPath
       clipPathUnits="userSpaceOnUse"
       id="clipPath4050">
      <path
         d="M 0,1190.551 H 841.89 V 0 H 0 Z"
         id="path4048" />
    </clipPath>
    <clipPath
       clipPathUnits="userSpaceOnUse"
       id="clipPath4206">
      <path
         d="M 0,1190.551 H 841.89 V 0 H 0 Z"
         id="path4204" />
    </clipPath>
    <clipPath
       clipPathUnits="userSpaceOnUse"
       id="clipPath5522">
      <path
         d="M 0,1190.551 H 841.89 V 0 H 0 Z"
         id="path5520" />
    </clipPath>
    <clipPath
       clipPathUnits="userSpaceOnUse"
       id="clipPath5782">
      <path
         d="M 62.9731,909.914 H 605.398 V 875.89 H 62.9731 Z"
         id="path5780" />
    </clipPath>
    <clipPath
       clipPathUnits="userSpaceOnUse"
       id="clipPath5786">
      <path
         d="M 62.9731,909.914 H 605.398 V 875.89 H 62.9731 Z"
         id="path5784" />
    </clipPath>
    <clipPath
       clipPathUnits="userSpaceOnUse"
       id="clipPath5810">
      <path
         d="M 64.6001,873.238 H 403.832 V 839.214 H 64.6001 Z"
         id="path5808" />
    </clipPath>
    <clipPath
       clipPathUnits="userSpaceOnUse"
       id="clipPath5814">
      <path
         d="M 64.6001,873.238 H 403.832 V 839.214 H 64.6001 Z"
         id="path5812" />
    </clipPath>
    <clipPath
       clipPathUnits="userSpaceOnUse"
       id="clipPath5838">
      <path
         d="M 61.2964,836.621 H 272.199 V 802.597 H 61.2964 Z"
         id="path5836" />
    </clipPath>
    <clipPath
       clipPathUnits="userSpaceOnUse"
       id="clipPath5842">
      <path
         d="M 61.2964,836.621 H 272.199 V 802.597 H 61.2964 Z"
         id="path5840" />
    </clipPath>
    <clipPath
       clipPathUnits="userSpaceOnUse"
       id="clipPath5866">
      <path
         d="M 61.2749,802.908 H 305.706 V 768.884 H 61.2749 Z"
         id="path5864" />
    </clipPath>
    <clipPath
       clipPathUnits="userSpaceOnUse"
       id="clipPath5870">
      <path
         d="M 61.2749,802.908 H 305.706 V 768.884 H 61.2749 Z"
         id="path5868" />
    </clipPath>
    <clipPath
       clipPathUnits="userSpaceOnUse"
       id="clipPath5894">
      <path
         d="M 670.972,769.137 H 788.05 V 735.113 H 670.972 Z"
         id="path5892" />
    </clipPath>
    <clipPath
       clipPathUnits="userSpaceOnUse"
       id="clipPath5898">
      <path
         d="M 670.972,769.137 H 788.05 V 735.113 H 670.972 Z"
         id="path5896" />
    </clipPath>
    <clipPath
       clipPathUnits="userSpaceOnUse"
       id="clipPath5922">
      <path
         d="M 558.837,909.024 H 797.543 V 804.219 H 558.837 Z"
         id="path5920" />
    </clipPath>
    <clipPath
       clipPathUnits="userSpaceOnUse"
       id="clipPath5926">
      <path
         d="m 675.094,909.024 h 116.38 V 875 h -116.38 z"
         id="path5924" />
    </clipPath>
    <clipPath
       clipPathUnits="userSpaceOnUse"
       id="clipPath5930">
      <path
         d="M 558.837,869.716 H 790.81 V 835.692 H 558.837 Z"
         id="path5928" />
    </clipPath>
    <clipPath
       clipPathUnits="userSpaceOnUse"
       id="clipPath5934">
      <path
         d="M 563.035,838.243 H 797.543 V 804.219 H 563.035 Z"
         id="path5932" />
    </clipPath>
    <clipPath
       clipPathUnits="userSpaceOnUse"
       id="clipPath5982">
      <path
         d="M 60.7856,911.695 H 603.211 V 877.671 H 60.7856 Z"
         id="path5980" />
    </clipPath>
    <clipPath
       clipPathUnits="userSpaceOnUse"
       id="clipPath5986">
      <path
         d="M 60.7856,911.695 H 603.211 V 877.671 H 60.7856 Z"
         id="path5984" />
    </clipPath>
    <clipPath
       clipPathUnits="userSpaceOnUse"
       id="clipPath6010">
      <path
         d="M 62.4116,875.017 H 401.644 V 840.994 H 62.4116 Z"
         id="path6008" />
    </clipPath>
    <clipPath
       clipPathUnits="userSpaceOnUse"
       id="clipPath6014">
      <path
         d="M 62.4116,875.017 H 401.644 V 840.994 H 62.4116 Z"
         id="path6012" />
    </clipPath>
    <clipPath
       clipPathUnits="userSpaceOnUse"
       id="clipPath6038">
      <path
         d="M 59.1089,838.402 H 270.012 V 804.378 H 59.1089 Z"
         id="path6036" />
    </clipPath>
    <clipPath
       clipPathUnits="userSpaceOnUse"
       id="clipPath6042">
      <path
         d="M 59.1089,838.402 H 270.012 V 804.378 H 59.1089 Z"
         id="path6040" />
    </clipPath>
    <clipPath
       clipPathUnits="userSpaceOnUse"
       id="clipPath6066">
      <path
         d="M 59.0864,804.689 H 303.518 V 770.665 H 59.0864 Z"
         id="path6064" />
    </clipPath>
    <clipPath
       clipPathUnits="userSpaceOnUse"
       id="clipPath6070">
      <path
         d="M 59.0864,804.689 H 303.518 V 770.665 H 59.0864 Z"
         id="path6068" />
    </clipPath>
    <clipPath
       clipPathUnits="userSpaceOnUse"
       id="clipPath6094">
      <path
         d="M 668.332,770.918 H 785.41 V 736.894 H 668.332 Z"
         id="path6092" />
    </clipPath>
    <clipPath
       clipPathUnits="userSpaceOnUse"
       id="clipPath6098">
      <path
         d="M 668.332,770.918 H 785.41 V 736.894 H 668.332 Z"
         id="path6096" />
    </clipPath>
    <clipPath
       clipPathUnits="userSpaceOnUse"
       id="clipPath6122">
      <path
         d="m 556.584,910.804 h 238.77 V 806 h -238.77 z"
         id="path6120" />
    </clipPath>
    <clipPath
       clipPathUnits="userSpaceOnUse"
       id="clipPath6126">
      <path
         d="m 672.906,910.804 h 116.38 V 876.78 h -116.38 z"
         id="path6124" />
    </clipPath>
    <clipPath
       clipPathUnits="userSpaceOnUse"
       id="clipPath6130">
      <path
         d="M 556.584,871.589 H 788.557 V 837.565 H 556.584 Z"
         id="path6128" />
    </clipPath>
    <clipPath
       clipPathUnits="userSpaceOnUse"
       id="clipPath6134">
      <path
         d="M 560.847,840.024 H 795.354 V 806 H 560.847 Z"
         id="path6132" />
    </clipPath>
    <clipPath
       clipPathUnits="userSpaceOnUse"
       id="clipPath6224">
      <path
         d="M 0,1190.551 H 841.89 V 0 H 0 Z"
         id="path6222" />
    </clipPath>
    <clipPath
       clipPathUnits="userSpaceOnUse"
       id="clipPath6232">
      <path
         d="M 334.626,802.55 H 785.998 V 768.526 H 334.626 Z"
         id="path6230" />
    </clipPath>
    <clipPath
       clipPathUnits="userSpaceOnUse"
       id="clipPath6236">
      <path
         d="M 334.626,802.55 H 785.998 V 768.526 H 334.626 Z"
         id="path6234" />
    </clipPath>
    <clipPath
       clipPathUnits="userSpaceOnUse"
       id="clipPath6260">
      <path
         d="M 332.325,804.747 H 783.697 V 770.724 H 332.325 Z"
         id="path6258" />
    </clipPath>
  </defs>
  <g
     inkscape:label="Capa 1"
     inkscape:groupmode="layer"
     id="layer1">
    <g
       id="g830"
       inkscape:label="Curso Portada-1"
       transform="matrix(0.35277777,0,0,-0.35277777,-25.730848,337.81699)">
      <g
         id="g5516">
        <g
           id="g5518"
           clip-path="url(#clipPath5522)">
          <g
             id="g5732"
             transform="matrix(1.8199243,0,0,1.8199243,260.25885,952.37397)">
            <path
               d="m 0,0 h -22.99 c -0.944,0 -1.646,-0.873 -1.442,-1.795 l 6.498,-29.464 11.804,-53.514 c 0.522,-2.363 -1.278,-4.603 -3.698,-4.603 h -16.876 c -2.325,0 -4.101,2.075 -3.741,4.372 l 8.04,51.418 -5.998,32.378 c -0.13,0.7 -0.74,1.208 -1.452,1.208 h -5.506 c -2.196,0 -4.143,-1.414 -4.822,-3.503 l -52.8,-162.388 40.3,10.351 c 1.696,0.436 3.036,1.734 3.526,3.415 l 10.036,34.442 c 0.64,2.196 2.653,3.706 4.94,3.706 h 32.51 c 2.282,0 4.29,-1.503 4.935,-3.691 l 1.326,-4.499 c 0.482,-1.635 1.771,-2.909 3.413,-3.37 L 48.173,-136.835 4.823,-3.503 C 4.144,-1.414 2.197,0 0,0 m -31.129,-89.376 9.012,57.632 c 0.087,0.552 0.071,1.115 -0.047,1.662 l -6.239,28.874"
               style="fill:#fff;fill-opacity:1;fill-rule:nonzero;stroke:none"
               id="path5734" />
          </g>
          <g
             id="g5736"
             transform="matrix(1.8199243,0,0,1.8199243,140.02682,847.37417)">
            <path
               d="M 0,0 C -68.974,-30.777 60.883,-75.466 110.732,-84.089 75.082,-74.695 -39.148,-34.007 0,0 Z"
               style="fill:#732ed9;fill-opacity:1;fill-rule:nonzero;stroke:none"
               id="path5738" />
          </g>
          <g
             id="g5740"
             transform="matrix(1.8199243,0,0,1.8199243,108.58617,837.52528)">
            <path
               d="M 0,0 C -68.991,-40.985 85.483,-73.923 123.012,-82.216 68.612,-68.548 -32.681,-34.302 0,0"
               style="fill:#732ed9;fill-opacity:1;fill-rule:nonzero;stroke:none"
               id="path5742" />
          </g>
        </g>
      </g>
    </g>
  </g>
</svg>
