<?xml version="1.0" encoding="UTF-8"?>
<svg id="Capa_1" data-name="Capa 1" xmlns="http://www.w3.org/2000/svg" viewBox="0 0 1015.27 189.4">
  <defs>
    <style>
      .cls-1 {
        fill: #FFF;
      }
    </style>
  </defs>
  <path class="cls-1" d="m816.9,98.62c0-27.22,0-54.45,0-81.67,0-1.08-.04-2.17.04-3.24.14-1.97.67-2.48,2.68-2.64.81-.07,1.62-.05,2.43-.05,17.13,0,34.26,0,51.38,0,.54,0,1.08,0,1.62.01,2.75.1,3.16.46,3.99,3.09,2.72,8.58,5.61,17.12,8.15,25.75,1.88,6.4,4.04,12.7,5.93,19.1,1.74,5.87,3.81,11.65,5.46,17.54,1.48,5.29,3.33,10.47,4.87,15.74,2.02,6.92,4.27,13.77,6.42,20.65,1.5,4.82,2.98,9.64,4.51,14.45.34,1.08.4,2.63,1.79,2.77,1.6.16,1.52-1.53,1.91-2.53,2.58-6.64,4.08-13.63,6.37-20.36,1.33-3.92,2.37-7.93,3.62-11.88,2.52-7.99,4.97-16,7.38-24.02,2.9-9.66,6.06-19.24,9.03-28.88,1.94-6.28,3.69-12.62,5.64-18.9,1.04-3.35,2.29-6.64,3.14-10.06.4-1.61,1.44-2.43,3.12-2.43.72,0,1.44-.03,2.16-.03,17.22,0,34.44,0,51.66,0,4.89,0,5.05.16,5.05,4.99,0,55.08,0,110.16,0,165.24,0,4.91-.06,4.97-5,4.97-9.11,0-18.21,0-27.32,0-.81,0-1.63.03-2.43-.05-1.73-.17-2.21-.63-2.38-2.33-.09-.98-.06-1.98-.06-2.97-.02-42.19-.04-84.38-.07-126.57,0-1.35-.05-2.7-.14-4.05-.04-.54-.23-1.08-.87-1.22-.66-.15-1.02.3-1.27.79-.29.56-.53,1.15-.71,1.75-2.38,8.13-4.73,16.26-7.11,24.39-2.13,7.26-4.31,14.51-6.43,21.77-2.97,10.2-5.87,20.43-8.88,30.63-2.85,9.67-5.96,19.27-8.64,28.99-1.7,6.16-3.76,12.22-5.32,18.43-.67,2.69-1.77,5.29-2.48,7.99-.45,1.73-1.56,2.47-3.36,2.47-11.18-.03-22.36,0-33.53-.03-2.24,0-2.66-.37-3.37-2.75-1.72-5.79-3.3-11.61-5.05-17.39-3.06-10.08-5.77-20.27-8.93-30.32-1.92-6.1-3.45-12.31-5.28-18.44-2.91-9.75-5.61-19.57-8.64-29.28-2.09-6.7-3.82-13.52-5.79-20.27-1.49-5.1-3.13-10.16-4.44-15.31-.22-.86-.62-1.71-1.09-2.46-.45-.71-1.36-.56-1.72.21-.42.93-.34,1.95-.34,2.93,0,10.82.22,21.64-.05,32.45-.81,32.09-.25,64.17-.44,96.26,0,.45,0,.9-.02,1.35-.16,2.43-.66,2.99-3.17,3.01-5.32.06-10.64.03-15.96.03-4.78,0-9.56.02-14.33-.01-3.36-.02-3.74-.39-3.75-3.74-.02-13.7-.01-27.41-.01-41.11,0-14.24,0-28.49,0-42.73Z"/>
  <path class="cls-1" d="m346.79,68.19c0-17.49,0-34.97,0-52.46,0-4.5.22-4.72,4.75-4.72,10.28-.01,20.55,0,30.83,0,.72,0,1.45-.02,2.16.05,1.94.19,2.45.73,2.6,2.74.05.72.03,1.44.03,2.16,0,31.1.09,62.19-.08,93.29-.06,11.53-.69,23.05-2.59,34.46-1.13,6.77-3.67,12.97-7.44,18.68-5.25,7.96-12.47,13.48-20.97,17.72-10.79,5.38-22.2,7.76-34.1,8.46-3.69.22-7.37.84-11.05.82-12.8-.09-25.61-.55-38.18-3.17-9.62-2-18.4-6.09-26.43-11.86-5.59-4.01-9.98-9.07-13.74-14.7-2.72-4.07-4.64-8.54-5.44-13.43-.73-4.44-1.59-8.87-2.2-13.33-.46-3.29-.87-6.63-.86-9.94.02-7.93-.6-15.84-.6-23.77-.02-27.67-.01-55.34,0-83.01,0-5.11.06-5.17,5.09-5.18,10.1,0,20.19,0,30.29,0,.72,0,1.44-.02,2.16.04,2.13.17,2.64.69,2.77,2.85.07,1.08.03,2.16.03,3.24,0,32.09-.07,64.18.06,96.26.03,7.1.08,14.27,1.23,21.29,1.33,8.08,5.44,14.57,12.42,19.13,6.28,4.1,13.2,5.96,20.59,6.69,7.59.76,15.11.53,22.61-.7,6.28-1.03,11.88-3.59,16.67-7.8,4.9-4.32,7.39-9.9,8.17-16.29,1.1-9.05,1.2-18.15,1.2-27.25,0-13.43,0-26.86,0-40.29Z"/>
  <path class="cls-1" d="m521.03,7.82c11.67-.31,23.18,1.15,34.34,4.69,14.38,4.57,26.92,12.1,36.28,24.22,4.43,5.74,7.75,12.14,10.47,18.85.83,2.04.43,2.71-1.73,3.32-4.09,1.15-8.32,1.58-12.46,2.48-7.04,1.53-14.12,2.92-21.22,4.18-2.94.53-3.12.45-4.16-2.33-1.78-4.78-4.36-9.16-7.72-12.93-3.68-4.13-8.34-7.09-13.43-9.31-8.08-3.52-16.57-4.96-25.32-4.48-9.95.54-19.3,3.06-27.74,8.69-10.24,6.83-16.04,16.48-18.93,28.19-2.33,9.44-2.92,19.05-2.61,28.71.27,8.75,1.39,17.43,3.96,25.83,2.1,6.89,5.37,13.24,10.49,18.37,5.22,5.24,11.49,8.91,18.52,11.29,10.27,3.48,20.75,3.7,31.21,1.44,9.12-1.98,16.83-6.55,22.92-13.84,4.61-5.51,7.59-11.78,9.8-18.49.97-2.93,1.4-3.2,4.52-2.66,2.68.47,5.17,1.6,7.8,2.18,7.84,1.72,15.45,4.32,23.3,5.99.44.09.88.19,1.31.32,2.61.79,2.87,1.26,1.93,3.88-2.89,8.12-6.98,15.58-12.08,22.54-7.16,9.78-16.48,16.66-27.37,21.76-11.66,5.46-24.02,7.33-36.66,8.36-11.17.91-22.2-.21-33.04-2.47-10.8-2.26-21.07-6.18-30.25-12.59-5.47-3.82-10.97-7.63-15.48-12.59-8.98-9.88-15.49-21.1-18.9-34.17-2.13-8.19-2.93-16.47-3.47-24.83-.3-4.6.31-9.18.57-13.76.36-6.3,1.61-12.49,3.27-18.59,2.86-10.56,7.51-20.19,14.27-28.86,2.68-3.43,5.47-6.74,8.74-9.53,5.48-4.68,11.24-9.01,17.67-12.37,10.66-5.57,22-8.91,33.9-10.46,5.73-.74,11.47-1.21,17.3-1.03Z"/>
  <path class="cls-1" d="m642.68,99.47c0-26.77,0-53.55,0-80.32,0-.99-.02-1.98.01-2.97.08-2.88.5-3.41,3.27-3.42,11.27-.04,22.54-.04,33.81,0,2.7,0,3.14.52,3.23,3.17.04,1.08.01,2.16.01,3.25,0,44.08,0,88.17,0,132.25,0,1.17-.03,2.35.04,3.51.13,2.16.6,2.61,2.82,2.76.9.06,1.8.04,2.7.04,30.74,0,61.48,0,92.22,0,1.17,0,2.35,0,3.51.08,1.26.08,1.95.83,2.07,2.08.05.54.08,1.08.08,1.62,0,6.94,0,13.88,0,20.82,0,.63-.03,1.26-.11,1.89-.14,1.13-.81,1.8-1.95,1.89-.99.08-1.98.09-2.97.09-44.62,0-89.25,0-133.87,0-4.79,0-4.88-.09-4.88-4.8,0-27.32,0-54.63,0-81.95Z"/>
  <path class="cls-1" d="m84.28,119.15v16.79h-5.31c-1.25,0-2.28,1.03-2.28,2.29l-.02,27.99,15.94,15.98,15.96-15.99v-28.03c0-1.23-1.01-2.24-2.28-2.24l-5.3-.06v-16.64l2.02-1.58c3.92-3.12,6.17-7.8,6.17-12.87,0-9.07-7.37-16.44-16.46-16.44s-16.49,7.37-16.49,16.44c0,4.99,2.23,9.63,6.09,12.8l1.96,1.57Zm-39.95-26.12l-.09,1.29v43.54l15.86,15.84-.04-15.48c0-5.51,2.39-10.67,6.46-14.24-4.06-5.53-6.26-12.24-6.26-19.18,0-17.89,14.59-32.48,32.54-32.51,17.94,0,32.55,14.62,32.55,32.51,0,6.98-2.24,13.72-6.34,19.29,4,3.59,6.34,8.7,6.34,14.12v15.45l15.83-15.85v-42.03c0-26.69-21.75-48.4-48.46-48.4-25.72.02-46.98,20.08-48.39,45.66m141.1.51C172.59,48.35,137.11,12.63,92.42,0,47.97,12.96,12.72,48.7,0,93.6l27.31,27.35.03-28.04c1.61-35.09,30.3-62.46,65.38-62.48,36.07,0,65.42,29.3,65.42,65.34v25.07l27.29-27.3Z"/>
</svg>